<?xml version="1.0" encoding="utf-8"?><!-- Generator: Adobe Illustrator 21.0.2, SVG Export Plug-In . SVG Version: 6.00 Build 0)  --><svg version="1.1" id="Layer_1" xmlns="http://www.w3.org/2000/svg" xmlns:xlink="http://www.w3.org/1999/xlink" x="0px" y="0px"	 viewBox="0 0 207 259" style="enable-background:new 0 0 207 259;" xml:space="preserve"><style type="text/css">	.st0{fill:none;stroke:#000000;stroke-miterlimit:10;}	.st1{stroke:#000000;stroke-miterlimit:10;}</style><path class="st0" d="M116.8,142.1"/><path class="st1" d="M159.8,166.7c-44.7,66-102.9,104.7-130,86.4c-4.1-2.7-6.3-6.5-9.4-11.4c-0.5-0.5-2.5-3.5-2.9-4.1l-15-24	c-3.5-5.6,1.4-10.5,7-14l24-17l19-13c5.6-3.5,11.5-5.6,15,0l3,4l7,11c12.8-2,32.4-18.8,48.8-43c18.5-27.4,26.7-55,20.1-65.7l-16-2.9	l-2-0.4c-6.5-1.2-5-7-4-11l2-10l9-44c1.2-6.5,5.5-6.2,12-5l31,7c5,1,9.3,1.9,13,4.4C218.7,32.2,204.5,100.6,159.8,166.7z"/></svg>